<svg fill="#2eb8fe" height="200px" width="200px" version="1.1" id="Layer_1" xmlns="http://www.w3.org/2000/svg" xmlns:xlink="http://www.w3.org/1999/xlink" viewBox="0 0 512 512" xml:space="preserve"><g id="SVGRepo_bgCarrier" stroke-width="0"></g><g id="SVGRepo_tracerCarrier" stroke-linecap="round" stroke-linejoin="round"></g><g id="SVGRepo_iconCarrier"> <g> <g> <path d="M430.764,174.764C430.764,78.399,352.365,0,256,0S81.236,78.399,81.236,174.764c0,61.678,32.646,118.82,85.511,150.267 v21.29h-17.637c-4.428,0-8.017,3.588-8.017,8.017v149.645c0,4.428,3.588,8.017,8.017,8.017h213.779 c4.428,0,8.017-3.588,8.017-8.017V354.338c0-4.428-3.588-8.017-8.017-8.017h-17.637v-21.29 C398.118,293.584,430.764,236.442,430.764,174.764z M354.873,362.355v35.273h-35.856c-4.428,0-8.017,3.588-8.017,8.017 c0,4.428,3.588,8.017,8.017,8.017h35.856v35.273H222.864c-4.428,0-8.017,3.588-8.017,8.017c0,4.428,3.588,8.017,8.017,8.017 h132.008v30.998H157.127v-30.998h28.087c4.428,0,8.017-3.588,8.017-8.017c0-4.428-3.588-8.017-8.017-8.017h-28.087v-35.273 h124.526c4.428,0,8.017-3.588,8.017-8.017c0-4.428-3.588-8.017-8.017-8.017H157.127v-35.273H354.873z M333.326,313.403 c-2.535,1.416-4.107,4.094-4.107,6.998v25.921H182.781v-25.921c0-2.904-1.571-5.582-4.107-6.998 c-50.211-28.057-81.405-81.18-81.405-138.639C97.269,87.24,168.476,16.033,256,16.033S414.731,87.24,414.731,174.764 C414.731,232.222,383.537,285.345,333.326,313.403z"></path> </g> </g> <g> <g> <path d="M505.038,55.652c-5.443-0.724-19.158-3.753-28.951-16.239c-6.958-8.877-8.628-18.505-9.004-23.453 c-0.316-4.18-3.801-7.41-7.993-7.41s-7.677,3.229-7.994,7.41c-0.376,4.949-2.046,14.577-9.003,23.452 c-9.794,12.488-23.509,15.517-28.952,16.24c-3.984,0.53-6.961,3.927-6.961,7.947c0,4.02,2.977,7.417,6.962,7.947 c5.443,0.724,19.158,3.753,28.951,16.239c6.958,8.877,8.628,18.505,9.004,23.453c0.317,4.179,3.802,7.41,7.994,7.41 s7.677-3.229,7.994-7.41c0.376-4.949,2.046-14.576,9.003-23.452c9.794-12.488,23.509-15.517,28.952-16.24 c3.983-0.53,6.96-3.927,6.96-7.947C512,59.579,509.023,56.182,505.038,55.652z M463.47,77.893 c-1.667,2.127-3.119,4.278-4.38,6.421c-1.262-2.144-2.713-4.295-4.381-6.422c-5.031-6.415-10.793-11.007-16.419-14.293 c5.628-3.286,11.389-7.879,16.42-14.294c1.667-2.127,3.119-4.278,4.38-6.421c1.262,2.144,2.713,4.295,4.381,6.422 c5.031,6.416,10.793,11.008,16.419,14.293C474.263,66.885,468.501,71.478,463.47,77.893z"></path> </g> </g> <g> <g> <path d="M98.859,55.652c-5.443-0.724-19.158-3.753-28.951-16.239c-6.958-8.877-8.628-18.505-9.004-23.453 c-0.316-4.18-3.801-7.41-7.993-7.41s-7.677,3.229-7.994,7.41c-0.376,4.949-2.046,14.577-9.003,23.452 C26.12,51.9,12.403,54.929,6.962,55.652C2.977,56.182,0,59.579,0,63.599c0,4.02,2.977,7.417,6.962,7.947 c5.443,0.724,19.158,3.753,28.951,16.239c6.958,8.877,8.628,18.505,9.004,23.453c0.317,4.179,3.802,7.41,7.994,7.41 s7.677-3.229,7.994-7.41c0.376-4.949,2.046-14.576,9.003-23.452c9.794-12.488,23.509-15.517,28.952-16.24 c3.983-0.53,6.96-3.927,6.96-7.947C105.82,59.579,102.844,56.182,98.859,55.652z M57.291,77.893 c-1.667,2.127-3.119,4.278-4.38,6.421c-1.262-2.144-2.713-4.295-4.381-6.422c-5.031-6.415-10.792-11.007-16.419-14.293 c5.628-3.286,11.389-7.879,16.42-14.294c1.667-2.127,3.119-4.278,4.38-6.421c1.262,2.144,2.713,4.295,4.381,6.422 c5.031,6.416,10.792,11.008,16.419,14.293C68.083,66.885,62.322,71.478,57.291,77.893z"></path> </g> </g> <g> <g> <path d="M505.038,423.351c-5.443-0.724-19.158-3.753-28.951-16.239c-6.958-8.877-8.628-18.505-9.004-23.453 c-0.317-4.179-3.802-7.41-7.994-7.41s-7.677,3.229-7.994,7.41c-0.376,4.949-2.046,14.576-9.003,23.452 c-9.794,12.488-23.509,15.517-28.952,16.24c-3.985,0.529-6.962,3.927-6.962,7.947c0,4.02,2.977,7.417,6.962,7.947 c5.443,0.724,19.158,3.753,28.951,16.239c6.958,8.877,8.628,18.505,9.004,23.453c0.318,4.179,3.802,7.41,7.994,7.41 s7.677-3.229,7.994-7.41c0.376-4.949,2.046-14.577,9.003-23.452c9.794-12.488,23.509-15.517,28.952-16.24 c3.985-0.529,6.962-3.927,6.962-7.947C512,427.278,509.023,423.882,505.038,423.351z M463.47,445.593 c-1.667,2.127-3.119,4.278-4.38,6.421c-1.262-2.144-2.713-4.295-4.381-6.422c-5.031-6.416-10.793-11.008-16.419-14.293 c5.628-3.286,11.389-7.879,16.42-14.294c1.667-2.127,3.119-4.278,4.38-6.421c1.262,2.144,2.713,4.295,4.381,6.422 c5.031,6.416,10.793,11.007,16.419,14.293C474.263,434.584,468.501,439.177,463.47,445.593z"></path> </g> </g> <g> <g> <path d="M98.859,423.351c-5.443-0.724-19.158-3.753-28.951-16.239c-6.958-8.877-8.628-18.505-9.004-23.453 c-0.316-4.18-3.801-7.41-7.993-7.41s-7.677,3.229-7.994,7.41c-0.376,4.949-2.046,14.576-9.003,23.452 c-9.794,12.488-23.509,15.517-28.952,16.24C2.977,423.882,0,427.278,0,431.299c0,4.02,2.977,7.417,6.962,7.947 c5.443,0.724,19.158,3.753,28.951,16.239c6.958,8.877,8.628,18.505,9.004,23.453c0.317,4.179,3.802,7.41,7.994,7.41 s7.677-3.229,7.994-7.41c0.376-4.949,2.046-14.577,9.003-23.452c9.794-12.488,23.509-15.517,28.952-16.24 c3.983-0.53,6.96-3.927,6.96-7.947C105.82,427.278,102.844,423.882,98.859,423.351z M57.291,445.593 c-1.667,2.127-3.119,4.278-4.38,6.421c-1.262-2.144-2.713-4.295-4.381-6.422c-5.031-6.416-10.793-11.008-16.419-14.293 c5.628-3.286,11.389-7.879,16.42-14.294c1.667-2.127,3.119-4.278,4.38-6.421c1.262,2.144,2.713,4.295,4.381,6.422 c5.031,6.416,10.793,11.007,16.419,14.293C68.083,434.584,62.322,439.177,57.291,445.593z"></path> </g> </g> <g> <g> <path d="M386.376,102.456C360.008,55.082,310.05,25.653,256,25.653c-4.428,0-8.017,3.588-8.017,8.017 c0,4.428,3.588,8.017,8.017,8.017c48.237,0,92.826,26.273,116.366,68.566c2.279,4.093,7.756,5.355,11.6,2.671 C387.293,110.602,388.348,106,386.376,102.456z"></path> </g> </g> <g> <g> <path d="M402.757,148.3c-0.586-3.254-1.284-6.511-2.074-9.681c-1.071-4.297-5.426-6.904-9.718-5.839 c-4.297,1.073-6.91,5.424-5.839,9.718c0.706,2.828,1.328,5.735,1.85,8.641c0.698,3.878,4.076,6.598,7.881,6.598 c0.471,0,0.949-0.042,1.429-0.127C400.644,156.826,403.54,152.657,402.757,148.3z"></path> </g> </g> <g> <g> <path d="M353.804,219.366v-54.998c9.932-3.354,17.102-12.759,17.102-23.807c0-13.851-11.268-25.119-25.119-25.119 c-6.173,0-11.944,2.205-16.433,6.115l-48.69-27.554c0.301-1.561,0.455-3.151,0.455-4.748c0-13.851-11.268-25.119-25.119-25.119 c-13.851,0-25.119,11.266-25.119,25.117c0,1.705,0.175,3.399,0.517,5.057l-47.986,27.94c-4.576-4.314-10.678-6.809-17.201-6.809 c-13.851,0-25.119,11.268-25.119,25.119c0,11.049,7.17,20.454,17.102,23.807v54.998c-9.932,3.354-17.102,12.759-17.102,23.807 c0,13.851,11.268,25.119,25.119,25.119c6.394,0,12.436-2.432,17.001-6.633l48.442,26.62c-0.512,2.011-0.774,4.091-0.774,6.202 c0,13.851,11.268,25.119,25.119,25.119s25.119-11.268,25.119-25.119c0-2.214-0.29-4.393-0.853-6.494l47.799-27.052 c4.636,4.618,10.995,7.357,17.722,7.357c13.851,0,25.119-11.268,25.119-25.119C370.906,232.124,363.736,222.719,353.804,219.366z M338.007,135.9c1.672-2.772,4.58-4.426,7.78-4.426c5.01,0,9.086,4.076,9.086,9.086s-4.076,9.086-9.086,9.086 c-5.01,0-9.086-4.076-9.086-9.086C336.701,138.921,337.14,137.353,338.007,135.9z M256,80.167c5.01,0,9.086,4.076,9.086,9.086 c0,1.581-0.397,3.085-1.18,4.468c-1.62,2.849-4.65,4.618-7.906,4.618c-3.255,0-6.184-1.688-7.834-4.516 c-0.004-0.008-0.009-0.016-0.013-0.022c-0.822-1.401-1.239-2.931-1.239-4.547C246.914,84.243,250.99,80.167,256,80.167z M157.127,140.56c0-5.01,4.076-9.086,9.086-9.086c3.402,0,6.489,1.883,8.058,4.915c0.003,0.004,0.005,0.01,0.007,0.015 c0.677,1.309,1.02,2.708,1.02,4.157c0,5.01-4.076,9.086-9.086,9.086S157.127,145.569,157.127,140.56z M174.183,247.525 c-0.004,0.008-0.009,0.016-0.013,0.022c-1.599,2.906-4.648,4.711-7.957,4.711c-5.01,0-9.086-4.076-9.086-9.086 c0-5.01,4.076-9.086,9.086-9.086s9.086,4.076,9.086,9.086C175.299,244.7,174.913,246.205,174.183,247.525z M256,303.566 c-5.01,0-9.086-4.076-9.086-9.086c0-1.844,0.554-3.621,1.599-5.142c0.001-0.001,0.002-0.003,0.003-0.005 c1.706-2.466,4.503-3.939,7.483-3.939c2.932,0,5.698,1.437,7.4,3.843c0.003,0.004,0.006,0.009,0.01,0.014 c1.097,1.547,1.676,3.356,1.676,5.23C265.086,299.49,261.01,303.566,256,303.566z M320.668,243.171 c0,1.144,0.077,2.278,0.23,3.396l-49.552,28.042c-4.346-3.356-9.734-5.248-15.346-5.248c-5.727,0-11.206,1.958-15.593,5.433 l-49.471-27.187c0.262-1.459,0.396-2.944,0.396-4.434c0-11.049-7.17-20.454-17.102-23.807v-54.998 c9.932-3.354,17.102-12.759,17.102-23.809c0-1.394-0.119-2.786-0.353-4.162l48.51-28.245c4.517,3.942,10.376,6.219,16.511,6.219 c6.258,0,12.21-2.354,16.756-6.423l48.46,27.424c-0.363,1.703-0.548,3.441-0.548,5.187c0,11.049,7.17,20.454,17.102,23.807v54.998 C327.838,222.718,320.668,232.123,320.668,243.171z M345.787,252.259c-3.486,0-6.7-2.044-8.192-5.209 c-0.009-0.019-0.017-0.036-0.026-0.055c-0.575-1.21-0.868-2.496-0.868-3.822c0-5.01,4.076-9.086,9.086-9.086 c5.01,0,9.086,4.076,9.086,9.086S350.797,252.259,345.787,252.259z"></path> </g> </g> </g></svg>